<svg xmlns="http://www.w3.org/2000/svg" version="1.1" xmlns:xlink="http://www.w3.org/1999/xlink" xmlns:svgjs="http://svgjs.dev/svgjs" width="1500" height="1500" viewBox="0 0 1500 1500"><rect width="1500" height="1500" fill="#ffffff"></rect><g transform="matrix(0.6666666666666666,0,0,0.6666666666666666,249.39393939393938,435.99032258064517)"><svg viewBox="0 0 396 248" data-background-color="#ffffff" preserveAspectRatio="xMidYMid meet" height="939" width="1500" xmlns="http://www.w3.org/2000/svg" xmlns:xlink="http://www.w3.org/1999/xlink"><g id="tight-bounds" transform="matrix(1,0,0,1,0.2400000000000091,0.4000000000000057)"><svg viewBox="0 0 395.52 247.2" height="247.2" width="395.52"><g><svg></svg></g><g><svg viewBox="0 0 395.52 247.2" height="247.2" width="395.52"><g transform="matrix(1,0,0,1,75.54432,55.02539199639358)"><svg viewBox="0 0 244.43135999999998 137.14921600721283" height="137.14921600721283" width="244.43135999999998"><g><svg viewBox="0 0 244.43135999999998 137.14921600721283" height="137.14921600721283" width="244.43135999999998"><g><svg viewBox="0 0 244.43135999999998 137.14921600721283" height="137.14921600721283" width="244.43135999999998"><g><svg viewBox="0 0 244.43135999999998 137.14921600721283" height="137.14921600721283" width="244.43135999999998"><g id="textblocktransform"><svg viewBox="0 0 244.43135999999998 137.14921600721283" height="137.14921600721283" width="244.43135999999998" id="textblock"><g><svg viewBox="0 0 244.43135999999998 137.14921600721283" height="137.14921600721283" width="244.43135999999998"><g transform="matrix(1,0,0,1,0,0)"><svg width="244.43135999999998" viewBox="0 -37.83125 71.26249891006398 39.987202380952375" height="137.14921600721283" data-palette-color="#0c0a0f"><path d="M4.85 0L4.85 0Q4.85 0.25 4.85 0.25L4.85 0.25Q4.65 0.25 4.55 0L4.55 0Q3.85-1.8 3.95-3.85 4.05-5.9 4.65-8.05 5.25-10.2 6.28-12.38 7.3-14.55 8.5-16.6L8.5-16.6Q7.15-17.5 6.28-18.88 5.4-20.25 4.75-21.8L4.75-21.8Q3.95-23.65 3.4-25.55 2.85-27.45 2.35-29.25 1.85-31.05 1.3-32.68 0.75-34.3 0-35.6L0-35.6Q0-35.8 0.05-35.75L0.05-35.75Q1.6-34.65 2.48-33.05 3.35-31.45 3.93-29.6 4.5-27.75 5-25.78 5.5-23.8 6.3-22L6.3-22Q6.85-20.75 7.53-19.68 8.2-18.6 9.2-17.65L9.2-17.65 9.85-18.7Q9.5-19.15 9.33-19.53 9.15-19.9 9.3-20L9.3-20Q9.4-20 9.65-19.83 9.9-19.65 10.2-19.3L10.2-19.3Q10.7-19.85 10.95-20.4L10.95-20.4Q10.05-22.05 9.38-23.85 8.7-25.65 8.1-27.55L8.1-27.55Q7.6-29.15 7.05-30.65 6.5-32.15 5.5-33.9L5.5-33.9Q5.45-34 5.38-34.08 5.3-34.15 5.35-34.2L5.35-34.2Q5.45-34.3 5.7-34.15L5.7-34.15Q6.75-33.7 7.58-32.48 8.4-31.25 9.05-29.8 9.7-28.35 10.18-26.93 10.65-25.5 10.95-24.65L10.95-24.65 12-21.9Q14.8-26 17.38-29.9 19.95-33.8 21.25-37.55L21.25-37.55Q21.35-37.8 21.35-37.8L21.35-37.8Q21.45-37.9 21.48-37.68 21.5-37.45 21.5-37.4L21.5-37.4Q21.25-34.55 20-31.8 18.75-29.05 17.03-26.33 15.3-23.6 13.3-20.85 11.3-18.1 9.6-15.3L9.6-15.3Q8.5-13.5 7.55-11.5 6.6-9.5 5.93-7.48 5.25-5.45 4.95-3.53 4.65-1.6 4.85 0ZM14.75-13.1L14.75-13.1Q14-11.9 13.15-10.63 12.3-9.35 11.43-8.15 10.55-6.95 9.75-5.85 8.95-4.75 8.3-3.85L8.3-3.85Q8.05-3.5 7.85-3.33 7.65-3.15 7.6-3.2L7.6-3.2Q7.5-3.2 7.6-3.5 7.7-3.8 7.8-4.05L7.8-4.05Q9.4-8.15 11.83-11.95 14.25-15.75 16.8-19.6L16.8-19.6Q18.35-22 19.95-24.43 21.55-26.85 22.75-30L22.75-30Q22.85-30.25 22.83-30.3 22.8-30.35 22.9-30.35L22.9-30.35Q23-30.3 23-30.15 23-30 23-29.85L23-29.85Q23-28.75 22.55-27.35 22.1-25.95 21.35-24.38 20.6-22.8 19.7-21.18 18.8-19.55 17.88-18.05 16.95-16.55 16.13-15.28 15.3-14 14.75-13.1ZM19.5-25.05L19.5-25.05Q17.75-22.35 15.65-19.45 13.55-16.55 11.5-14.1L11.5-14.1Q11.4-14 11.05-13.63 10.7-13.25 10.55-13.35L10.55-13.35Q10.45-13.45 10.63-13.88 10.8-14.3 10.9-14.45L10.9-14.45Q11.25-15.15 11.75-16.07 12.25-17 12.8-17.95 13.35-18.9 13.93-19.8 14.5-20.7 14.95-21.35L14.95-21.35Q15.15-21.65 15.75-22.63 16.35-23.6 17.1-24.93 17.85-26.25 18.7-27.8 19.55-29.35 20.25-30.83 20.95-32.3 21.45-33.58 21.95-34.85 22-35.6L22-35.6Q22.1-36.1 22.15-36.1L22.15-36.1Q22.25-36.1 22.3-35.88 22.35-35.65 22.4-35.55L22.4-35.55Q22.6-34.5 22.4-33.1 22.2-31.7 21.78-30.23 21.35-28.75 20.73-27.38 20.1-26 19.5-25.05ZM6.35-30.75L6.35-30.75Q6.9-28.9 7.43-26.83 7.95-24.75 8.3-22.8L8.3-22.8Q8.35-22.7 8.33-22.48 8.3-22.25 8.2-22.15L8.2-22.15Q8.1-22.1 7.9-22.3 7.7-22.5 7.65-22.6L7.65-22.6Q7.4-22.95 7.1-23.5 6.8-24.05 6.55-24.65 6.3-25.25 6.08-25.85 5.85-26.45 5.7-26.9L5.7-26.9Q5.55-27.4 5.08-28.63 4.6-29.85 3.98-31.2 3.35-32.55 2.68-33.75 2-34.95 1.45-35.4L1.45-35.4Q1.15-35.7 1.25-35.7L1.25-35.7Q1.3-35.75 1.45-35.7 1.6-35.65 1.7-35.6L1.7-35.6Q2.5-35.35 3.28-34.8 4.05-34.25 4.67-33.55 5.3-32.85 5.73-32.13 6.15-31.4 6.35-30.75ZM6.65-2.6L6.65-2.6Q6.45-1.65 6.38-0.93 6.3-0.2 6.3 0.35L6.3 0.35Q6.3 0.45 6.3 0.6 6.3 0.75 6.15 0.75L6.15 0.75Q6.05 0.75 5.93 0.63 5.8 0.5 5.75 0.35L5.75 0.35Q5.65 0.1 5.55-0.15 5.45-0.4 5.4-0.73 5.35-1.05 5.4-1.58 5.45-2.1 5.6-2.9L5.6-2.9Q5.75-3.55 6.05-4.5 6.35-5.45 6.7-6.33 7.05-7.2 7.38-7.75 7.7-8.3 7.9-8.2L7.9-8.2Q7.95-8.15 7.93-7.85 7.9-7.55 7.8-7.18 7.7-6.8 7.6-6.45 7.5-6.1 7.45-5.95L7.45-5.95Q7.2-5.1 7.03-4.28 6.85-3.45 6.65-2.6ZM35.4-9.65L35.4-9.65Q37-8.2 38.4-6.58 39.8-4.95 41.1-3.2L41.1-3.2Q41.15-3.1 41.37-2.83 41.6-2.55 41.5-2.45L41.5-2.45Q41.45-2.4 41.12-2.53 40.8-2.65 40.7-2.75L40.7-2.75Q40.3-3 39.77-3.4 39.25-3.8 38.67-4.25 38.1-4.7 37.55-5.18 37-5.65 36.65-6.05L36.65-6.05Q36.4-6.25 35.45-7.08 34.5-7.9 33.3-8.85 32.1-9.8 30.85-10.6 29.6-11.4 28.8-11.6L28.8-11.6Q28.65-11.65 28.37-11.75 28.1-11.85 28.15-12.1L28.15-12.1Q28.55-14 29.15-15.8 29.75-17.6 30.3-19.5L30.3-19.5Q31-21.85 31.62-24.3 32.25-26.75 32.35-29.6L32.35-29.6Q32.35-29.85 32.4-29.85L32.4-29.85Q32.55-29.85 32.65-29.5L32.65-29.5Q33.25-28.15 33.15-26 33.05-23.85 32.62-21.53 32.2-19.2 31.57-17.07 30.95-14.95 30.5-13.7L30.5-13.7 30.35-13.3Q32.2-14.55 34.2-15.8 36.2-17.05 37.92-18.32 39.65-19.6 40.92-20.98 42.2-22.35 42.65-23.85L42.65-23.85Q42.95-24.85 42.57-25.85 42.2-26.85 41.27-27.73 40.35-28.6 38.95-29.25 37.55-29.9 35.85-30.15L35.85-30.15Q33.6-30.45 31.3-30.3L31.3-30.3Q31.5-28.8 31.37-27.28 31.25-25.75 31-24.65L31-24.65Q30.35-21.95 29.35-19.07 28.35-16.2 27.3-13.7L27.3-13.7Q27.2-13.55 27-13.2 26.8-12.85 26.65-12.9L26.65-12.9Q26.55-12.95 26.6-13.35 26.65-13.75 26.65-13.9L26.65-13.9Q26.7-14.5 26.87-15.38 27.05-16.25 27.22-17.2 27.4-18.15 27.62-19.03 27.85-19.9 28.05-20.55L28.05-20.55Q28.15-20.85 28.37-21.83 28.6-22.8 28.85-24.15 29.1-25.5 29.35-27.05 29.6-28.6 29.75-30.05L29.75-30.05 29.05-29.95Q28.9-28.05 28.45-26.1 28-24.15 27.42-22.18 26.85-20.2 26.22-18.18 25.6-16.15 25.15-14.2L25.15-14.2Q24.75-12.45 24.52-10.55 24.3-8.65 24.37-6.8 24.45-4.95 24.82-3.23 25.2-1.5 26.05-0.1L26.05-0.1Q26.15 0.15 26.05 0.15L26.05 0.15Q25.95 0.15 25.8 0L25.8 0Q24.55-1.45 23.9-3.25 23.25-5.05 23.07-7.03 22.9-9 23.12-11.1 23.35-13.2 23.8-15.2L23.8-15.2Q24.65-18.95 25.85-22.6 27.05-26.25 27.85-29.65L27.85-29.65Q26.6-29.35 25.4-28.93 24.2-28.5 23.15-28L23.15-28Q22.9-27.9 22.85-27.95L22.85-27.95Q22.8-28 22.9-28.13 23-28.25 23.1-28.3L23.1-28.3Q25.6-30.35 29.2-31.2 32.8-32.05 36.55-31.65L36.55-31.65Q38.5-31.4 40.12-30.55 41.75-29.7 42.8-28.48 43.85-27.25 44.17-25.75 44.5-24.25 43.85-22.75L43.85-22.75Q43.1-21 41.47-19.5 39.85-18 37.82-16.7 35.8-15.4 33.55-14.3 31.3-13.2 29.35-12.25L29.35-12.25Q30.15-12.25 31-12 31.85-11.75 32.67-11.38 33.5-11 34.22-10.55 34.95-10.1 35.4-9.65ZM49.25-22.15L49.25-22.15Q48.5-19.55 46.97-17.73 45.45-15.9 43.6-14.7 41.75-13.5 39.85-12.88 37.95-12.25 36.55-12.05L36.55-12.05Q36.15-11.95 35.82-11.98 35.5-12 35.55-12.1L35.55-12.1Q35.45-12.2 35.77-12.3 36.1-12.4 36.45-12.55L36.45-12.55Q39.15-13.55 41.65-15.15 44.15-16.75 46.05-19.4L46.05-19.4Q46.95-20.65 47.4-22.3 47.85-23.95 47.72-25.65 47.6-27.35 46.87-28.95 46.15-30.55 44.75-31.7L44.75-31.7Q43.1-33.1 41.15-33.9 39.2-34.7 37.15-35 35.1-35.3 33-35.13 30.9-34.95 28.95-34.45L28.95-34.45Q28.6-34.35 28.55-34.33 28.5-34.3 28.45-34.4L28.45-34.4Q28.45-34.45 28.85-34.75L28.85-34.75Q29.65-35.25 30.97-35.68 32.3-36.1 33.97-36.25 35.65-36.4 37.6-36.23 39.55-36.05 41.6-35.3L41.6-35.3Q43.7-34.6 45.55-33.13 47.4-31.65 48.5-29.5L48.5-29.5Q49.55-27.4 49.57-25.43 49.6-23.45 49.25-22.15ZM23.85-30.3L23.85-30.3Q24.85-31.75 26.5-32.68 28.15-33.6 30.1-34.05 32.05-34.5 34.17-34.45 36.3-34.4 38.3-33.95 40.3-33.5 42.02-32.6 43.75-31.7 44.9-30.4L44.9-30.4Q45.7-29.45 46.12-28.38 46.55-27.3 46.57-26.18 46.6-25.05 46.32-24 46.05-22.95 45.55-22.05L45.55-22.05Q45.45-21.85 45.05-21.38 44.65-20.9 44.55-21L44.55-21Q44.45-21.05 44.7-21.55 44.95-22.05 45.05-22.3L45.05-22.3Q45.45-23.6 45.37-24.88 45.3-26.15 44.87-27.25 44.45-28.35 43.75-29.23 43.05-30.1 42.25-30.65L42.25-30.65Q40.35-31.9 37.95-32.43 35.55-32.95 33.07-32.83 30.6-32.7 28.25-31.98 25.9-31.25 24.2-30.05L24.2-30.05Q23.75-29.65 23.6-29.8L23.6-29.8Q23.5-29.85 23.62-30.03 23.75-30.2 23.85-30.3ZM50.5 1.2L50.5 1.2Q50.8 1.15 50.8 1.25L50.8 1.25Q50.8 1.35 50.55 1.45L50.55 1.45Q48.75 2.1 47.05 2.15 45.35 2.2 43.8 1.83 42.25 1.45 40.9 0.78 39.55 0.1 38.45-0.7L38.45-0.7Q37.15-1.65 35.97-2.83 34.8-4 33.7-5.18 32.6-6.35 31.5-7.45 30.4-8.55 29.25-9.4L29.25-9.4Q28.4-6.6 27.7-4.45L27.7-4.45Q27.6-4.2 27.5-4 27.4-3.8 27.3-3.85L27.3-3.85Q27.2-3.9 27.2-4.13 27.2-4.35 27.2-4.6L27.2-4.6Q27.3-6 27.4-7.45 27.5-8.9 27.85-10.35L27.85-10.35Q27.5-10.55 27.17-10.7 26.85-10.85 26.45-11.05L26.45-11.05Q26.3-11.2 26.3-11.25L26.3-11.25Q26.3-11.3 26.42-11.3 26.55-11.3 26.65-11.3L26.65-11.3Q28.65-11.15 30.3-10.08 31.95-9 33.5-7.55 35.05-6.1 36.55-4.48 38.05-2.85 39.75-1.6L39.75-1.6Q40.7-0.9 41.92-0.33 43.15 0.25 44.55 0.65 45.95 1.05 47.47 1.23 49 1.4 50.5 1.2ZM42.75-6.1L42.75-6.1Q44.15-4.85 45.42-3.3 46.7-1.75 47.9-0.8L47.9-0.8Q48.25-0.45 48.2-0.3L48.2-0.3Q48.1-0.2 47.95-0.25 47.8-0.3 47.6-0.35L47.6-0.35Q46.25-0.8 45.07-1.6 43.9-2.4 42.8-3.4 41.7-4.4 40.67-5.5 39.65-6.6 38.6-7.65L38.6-7.65Q37.9-8.35 37.07-9.2 36.25-10.05 35.35-10.78 34.45-11.5 33.47-11.98 32.5-12.45 31.45-12.45L31.45-12.45 33.4-13.3Q34.15-13.65 35.25-14.15 36.35-14.65 37.35-15.1 38.35-15.55 39.1-15.83 39.85-16.1 39.9-16.05L39.9-16.05Q39.95-15.95 39.72-15.7 39.5-15.45 39.12-15.15 38.75-14.85 38.4-14.6 38.05-14.35 37.9-14.3L37.9-14.3Q36.95-13.75 36.12-13.28 35.3-12.8 34.45-12.4L34.45-12.4Q35.6-11.95 36.8-11.13 38-10.3 39.1-9.35 40.2-8.4 41.15-7.53 42.1-6.65 42.75-6.1ZM26.55-3L26.55-3Q26.7-2.15 26.95-1.35 27.2-0.55 27.55 0L27.55 0Q27.6 0 27.62 0.08 27.65 0.15 27.55 0.15L27.55 0.15Q27.45 0.15 27.32 0.08 27.2 0 27.1 0L27.1 0Q26.45-0.4 26.07-0.98 25.7-1.55 25.45-3L25.45-3Q25.35-3.55 25.35-4.4 25.35-5.25 25.4-6.03 25.45-6.8 25.55-7.35 25.65-7.9 25.85-7.9L25.85-7.9Q25.9-7.9 25.97-7.65 26.05-7.4 26.1-7.08 26.15-6.75 26.17-6.45 26.2-6.15 26.2-6.05L26.2-6.05Q26.3-5.2 26.35-4.45 26.4-3.7 26.55-3ZM48.45 0.15L48.45 0.15Q49.25 0.2 49.67 0.18 50.1 0.15 50.8 0.05L50.8 0.05Q50.85 0.05 51.05 0.03 51.25 0 51.3 0.05L51.3 0.05Q51.35 0.15 51.17 0.3 51 0.45 50.9 0.5L50.9 0.5Q50.1 0.75 49.42 0.85 48.75 0.95 47.45 0.8L47.45 0.8Q47 0.75 46.45 0.6 45.9 0.45 45.45 0.28 45 0.1 44.75-0.08 44.5-0.25 44.65-0.35L44.65-0.35Q44.75-0.4 45.27-0.28 45.8-0.15 46-0.1L46-0.1Q46.7 0.05 47.3 0.1 47.9 0.15 48.45 0.15ZM65.15-35.35L65.15-35.35Q66.15-35.35 67.45-34.98 68.75-34.6 69.55-33.75L69.55-33.75Q70.09-33.25 69.4-33.45L69.4-33.45Q68.7-33.55 67.97-33.77 67.25-34 66.4-34L66.4-34Q63.3-34.05 61.9-32.23 60.5-30.4 60.3-27.6L60.3-27.6Q60.15-25.65 60.37-23.73 60.6-21.8 60.9-19.9 61.2-18 61.42-16.1 61.65-14.2 61.45-12.25L61.45-12.25Q61.4-11.7 61.32-11.6 61.25-11.5 61.17-11.65 61.1-11.8 61.02-12.08 60.95-12.35 60.9-12.55L60.9-12.55Q60.6-14.55 60.15-16.57 59.7-18.6 59.3-20.65 58.9-22.7 58.67-24.75 58.45-26.8 58.65-28.9L58.65-28.9Q58.8-30.25 59.3-31.43 59.8-32.6 60.62-33.48 61.45-34.35 62.6-34.85 63.75-35.35 65.15-35.35ZM56.25-28.75L56.25-28.75Q56.4-30.1 56.95-31.48 57.5-32.85 58.42-33.98 59.35-35.1 60.67-35.77 62-36.45 63.65-36.45L63.65-36.45Q63.7-36.45 63.92-36.43 64.15-36.4 64.32-36.35 64.5-36.3 64.47-36.25 64.45-36.2 64.09-36.15L64.09-36.15Q62.75-35.9 61.6-35.25 60.45-34.6 59.6-33.65 58.75-32.7 58.22-31.53 57.7-30.35 57.6-29.1L57.6-29.1Q57.4-26.7 57.8-24.28 58.2-21.85 58.72-19.45 59.25-17.05 59.62-14.63 60-12.2 59.8-9.8L59.8-9.8Q59.7-8.85 59.35-7.8 59-6.75 58.42-5.85 57.85-4.95 57-4.33 56.15-3.7 55.1-3.55L55.1-3.55Q54.3-3.45 54.42-3.63 54.55-3.8 55-4.05L55-4.05Q56.8-5.05 57.47-6.4 58.15-7.75 58.35-9.75L58.35-9.75Q58.55-12.05 58.17-14.45 57.8-16.85 57.3-19.25 56.8-21.65 56.42-24.03 56.05-26.4 56.25-28.75ZM54.9-1.05L54.9-1.05Q57-1.05 58.45-1.83 59.9-2.6 60.85-3.88 61.8-5.15 62.3-6.83 62.8-8.5 62.95-10.3L62.95-10.3Q63.15-12.55 62.85-14.8 62.55-17.05 62.17-19.28 61.8-21.5 61.5-23.75 61.2-26 61.4-28.3L61.4-28.3Q61.6-30.6 62.82-31.95 64.05-33.3 66.5-33.3L66.5-33.3Q67.34-33.3 68.67-33 70-32.7 70.84-32.15L70.84-32.15Q71.75-31.55 70.7-31.8L70.7-31.8Q70.09-31.95 69.15-32.15 68.2-32.35 67.7-32.35L67.7-32.35Q65.75-32.35 64.34-31.5 62.95-30.65 62.75-28.5L62.75-28.5Q62.5-26.2 62.85-23.93 63.2-21.65 63.65-19.35 64.09-17.05 64.42-14.75 64.75-12.45 64.55-10.15L64.55-10.15Q64.4-8.25 63.8-6.45 63.2-4.65 62.1-3.2 61-1.75 59.37-0.88 57.75 0 55.55 0L55.55 0Q54.95 0 54-0.2 53.05-0.4 52.1-0.73 51.15-1.05 50.32-1.53 49.5-2 49.1-2.55L49.1-2.55Q48.65-3.05 49.4-2.8L49.4-2.8Q50.25-2.35 51.47-1.7 52.7-1.05 54.9-1.05ZM54.6-2.8L54.6-2.8Q55.85-2.8 56.9-3.2 57.95-3.6 59.05-4.25L59.05-4.25 59.05-4.1Q59.05-3.65 58.57-3.23 58.1-2.8 57.4-2.45 56.7-2.1 55.82-1.9 54.95-1.7 54.05-1.7L54.05-1.7Q53.7-1.7 53.1-1.83 52.5-1.95 51.87-2.18 51.25-2.4 50.7-2.7 50.15-3 49.95-3.4L49.95-3.4Q49.4-4 49.6-4.08 49.8-4.15 50.15-3.9L50.15-3.9Q50.95-3.65 51.97-3.23 53-2.8 54.6-2.8Z" opacity="1" transform="matrix(1,0,0,1,0,0)" fill="#0c0a0f" class="wordmark-text-0" data-fill-palette-color="primary" id="text-0"></path></svg></g></svg></g></svg></g></svg></g></svg></g></svg></g></svg></g><path d="M145.808 49.025L145.808 4.218 384.573 4.218 384.573 242.982 145.808 242.982 145.808 198.175 158.177 198.175 158.177 230.614 372.205 230.614 372.205 16.586 158.177 16.586 158.177 49.025Z" fill="#0c0a0f" stroke="transparent" data-fill-palette-color="tertiary"></path></svg></g><defs></defs></svg><rect width="395.52" height="247.2" fill="none" stroke="none" visibility="hidden"></rect></g></svg></g></svg>